<svg width="800" height="800" viewBox="0 0 800 800" fill="none" xmlns="http://www.w3.org/2000/svg">
<path d="M534.982 152.097C534.982 152.097 548.203 148.543 550.051 148.543C569.669 147.832 582.605 147.548 588.86 147.69C600.375 148.116 610.184 150.675 618.145 155.366C620.135 156.788 622.979 159.631 624.4 161.479C625.253 162.474 628.665 167.877 629.234 169.014C637.763 181.808 640.322 195.029 632.503 207.823C629.66 212.515 626.106 215.642 621.984 217.348C609.616 222.324 598.101 225.593 587.297 227.015C584.169 227.299 583.032 228.863 583.458 232.417C583.885 239.241 586.017 264.829 586.586 272.08C586.87 275.776 585.306 276.629 581.895 276.771C574.502 276.913 568.105 276.913 562.703 276.771C558.865 276.629 548.345 276.202 531.001 275.491C529.864 274.354 531.854 270.374 531.854 268.668C533.276 241.373 533.134 237.819 533.702 206.26C534.129 183.23 534.982 167.45 534.982 152.097ZM573.791 196.593C578.625 198.299 582.605 199.578 586.87 197.161C591.277 194.745 592.272 192.897 595.826 188.063C597.959 185.22 596.253 182.519 592.983 182.235C588.292 181.95 583.032 182.092 577.061 182.661C575.782 182.661 574.076 184.794 573.934 185.789C573.791 186.642 573.791 190.338 573.791 196.593Z" fill="#030505"/>
<path d="M523.325 272.079C519.487 272.079 506.266 271.795 502.428 271.795C498.021 271.795 493.756 271.937 489.917 272.222C487.074 272.506 486.079 271.795 485.511 269.378C482.667 259.143 481.53 250.471 482.099 243.648C482.099 243.505 481.814 241.942 481.388 238.956C467.883 238.245 460.064 237.819 457.932 237.535C455.657 237.535 453.382 237.108 451.25 236.54C446.701 235.544 444 237.961 443.005 241.373C441.583 246.633 436.892 265.256 435.613 270.516C435.328 271.511 434.191 273.643 433.196 273.643C424.808 274.212 416.279 274.496 407.891 274.496C405.048 274.78 403.627 272.648 404.337 269.521C410.166 242.937 418.553 204.411 423.813 186.499C427.509 174.274 429.5 163.754 435.186 155.224C436.465 153.234 438.314 152.239 440.73 152.097C453.951 151.528 465.608 150.817 475.702 149.964C484.942 149.396 488.638 152.097 491.339 158.778C495.32 169.014 498.447 177.828 500.864 185.504C501.575 187.637 503.991 196.877 508.114 213.083L516.644 246.064C517.496 249.334 521.05 263.55 521.903 266.962C522.188 268.383 523.041 269.805 523.467 270.942C523.609 271.369 523.751 271.653 523.751 271.795C523.751 272.079 523.609 272.079 523.325 272.079ZM452.814 187.921C451.819 201.142 451.108 208.392 450.966 209.814C450.824 212.515 451.961 213.794 454.662 213.794C465.182 213.794 471.579 213.794 473.853 213.794C476.554 213.794 477.692 212.799 477.265 209.956C475.844 197.872 474.991 191.191 474.849 189.911C474.706 189.2 473.853 188.063 473 188.063C470.442 187.921 463.76 187.921 452.814 187.921Z" fill="#030505"/>
<path d="M268.29 158.997C273.834 158.997 278.667 160.276 284.212 160.276C287.339 160.276 290.467 159.992 293.736 159.424C297.006 158.855 298.001 160.134 298.57 162.977C299.28 167.242 301.981 182.027 306.673 207.616L307.952 208.042C309.516 203.919 312.501 198.375 313.923 193.826C315.202 189.561 319.183 174.635 320.747 170.37C321.599 167.527 323.448 163.262 326.006 157.575C326.433 156.58 327.286 156.012 328.565 155.87C336.384 155.443 342.497 155.301 346.904 155.301C348.041 155.301 349.747 157.291 349.889 158.286C353.443 174.635 356.286 194.821 361.12 208.469C362.826 204.63 365.527 199.37 366.664 195.106C367.801 191.836 370.218 183.022 373.914 168.806C374.909 165.11 375.478 159.424 377.326 157.149C380.311 153.879 388.415 155.727 393.532 155.727C400.214 155.727 409.028 154.59 413.008 157.433C413.577 157.86 413.435 160.134 412.582 164.115C408.601 182.738 405.189 198.091 402.346 210.317C401.635 213.728 397.939 227.234 397.086 230.219C393.674 243.582 391.826 251.685 391.258 254.528C389.978 261.636 386.709 265.901 381.307 267.323C377.042 268.46 370.076 270.166 360.409 272.156C359.13 272.725 357.139 272.156 356.002 271.872C355.007 271.73 353.159 270.166 352.448 269.455C350.458 267.465 348.894 264.337 346.904 262.063C346.62 261.636 344.629 258.082 340.649 251.401L339.369 251.259C336.668 262.063 335.247 268.176 334.963 269.455C334.536 271.73 333.967 273.009 331.551 272.725C329.134 272.725 327.002 273.151 325.153 273.72C319.467 275.994 314.065 275.994 306.104 275.568C302.124 275.284 299.28 275.141 297.575 275.141C294.021 275.141 290.893 275.426 288.192 275.852C283.643 276.705 280.515 274.573 279.094 269.313C276.535 260.641 274.971 254.102 274.118 249.837C268.005 220.836 263.456 198.091 260.471 181.743C259.334 176.767 259.476 168.948 259.191 162.977C261.182 160.703 264.167 158.997 268.29 158.997Z" fill="#030505"/>
<path d="M237.801 155.011C242.208 155.011 245.051 159.276 244.625 163.825C244.34 169.654 244.056 173.208 244.056 174.487C243.914 179.889 241.497 181.595 237.374 183.443C232.257 186.002 226.855 186.713 219.747 187.139C216.051 187.424 213.349 187.566 211.644 187.85C207.521 187.85 203.825 188.987 202.545 191.831C202.119 193.11 202.119 193.963 202.545 194.389C202.972 194.816 205.815 197.659 206.384 198.228C207.379 199.081 209.369 200.502 210.506 201.355C214.345 203.488 230.835 212.017 234.673 214.576C241.924 219.267 247.468 227.228 246.615 238.459C245.62 251.253 241.497 260.636 234.247 266.464C225.149 273.857 213.207 277.695 198.565 277.695C195.58 277.695 186.908 278.121 172.692 278.974C170.417 278.974 162.03 279.685 160.04 279.969C158.049 280.112 156.77 278.974 156.343 276.558C156.201 275.136 155.348 270.871 153.785 264.048C153.074 261.062 152.505 257.935 153.642 255.234C154.78 252.675 155.348 251.538 157.623 249.832C162.172 246.562 168.427 243.15 175.819 242.439C177.81 242.297 185.913 241.729 187.903 241.444C192.168 241.16 195.58 239.312 198.281 235.9C200.839 233.057 198.281 228.792 195.58 227.797C180.795 222.111 172.976 218.983 171.839 218.557C168.143 216.993 163.878 214.718 159.044 211.591C157.339 210.453 156.343 208.89 156.059 206.899C154.922 198.37 155.775 190.267 158.618 182.59C162.598 172.212 169.849 164.536 180.226 159.702C188.472 155.864 196.432 154.3 204.109 154.869L237.801 155.011Z" fill="#030505"/>
<path d="M295.851 274.942L121.921 226.474L106.84 223.896L133.482 324.958L419.01 488.925L629.638 374.973L424.54 274.942L336.569 306.395H318.472L295.851 274.942Z" fill="white"/>
<path d="M641.007 417.725L696.001 439.751C692.272 442.981 676.054 451.381 641.007 459.134C597.198 468.825 529.155 503.186 498.396 522.569C467.636 541.952 479.754 549 438.741 549C405.931 549 263.506 476.167 196.395 439.751C194.531 437.108 190.802 429.002 190.802 417.725C190.802 403.628 178.685 387.769 166.568 376.316C154.451 364.862 139.537 334.026 128.352 303.189C119.964 280.065 109.829 244.812 105.01 227.183C104.607 225.711 105.941 224.354 107.421 224.726L294.453 271.698C296.146 272.123 297.648 273.08 298.732 274.448C313.964 293.666 343.862 334.249 353.92 358.695C366.969 390.413 398.661 474.993 423.828 483.803C425.381 501.13 445.647 536.5 471 536.5" stroke="black" stroke-width="13" stroke-linecap="round" stroke-linejoin="round"/>
<path d="M316.635 297.903L353.919 304.952C366.263 323.406 375.985 353.376 390.271 381.602C411.222 422.999 434.024 463.687 423.826 483.803" stroke="black" stroke-width="13" stroke-linecap="round" stroke-linejoin="round"/>
<path d="M338.076 297.903C349.991 293.713 400.11 277.236 419.276 270.72C422.81 269.519 426.625 269.727 429.989 271.343C494.208 302.205 614.552 358.944 641.324 367.457C642.292 367.764 642.323 369.256 641.369 369.604C587.389 389.31 474.488 439.282 428.49 491.732" stroke="black" stroke-width="13" stroke-linecap="round" stroke-linejoin="round"/>
<path d="M432.215 503.186C491.869 468.825 621.245 397.813 661.511 388.65" stroke="black" stroke-width="13" stroke-linecap="round" stroke-linejoin="round"/>
<path d="M448.062 525.212C498.707 492.026 613.231 422.306 666.174 408.914" stroke="black" stroke-width="13" stroke-linecap="round" stroke-linejoin="round"/>
<path d="M375.357 481.16C369.143 479.985 354.105 476.578 343.666 472.349C330.616 467.063 232.746 413.319 217.832 410.676" stroke="black" stroke-width="13" stroke-linecap="round" stroke-linejoin="round"/>
<path d="M662.139 524.588C666.546 524.588 669.389 528.853 668.963 533.402C668.678 539.23 668.394 542.784 668.394 544.064C668.252 549.466 665.835 551.172 661.712 553.02C656.595 555.579 651.193 556.289 644.085 556.716C640.388 557 637.687 557.142 635.981 557.427C631.859 557.427 628.163 558.564 626.883 561.407C626.457 562.687 626.457 563.54 626.883 563.966C627.31 564.393 630.153 567.236 630.722 567.804C631.717 568.657 633.707 570.079 634.844 570.932C638.682 573.064 655.173 581.594 659.011 584.153C666.261 588.844 671.806 596.805 670.953 608.036C669.958 620.83 665.835 630.212 658.585 636.041C649.487 643.433 637.545 647.272 622.903 647.272C619.917 647.272 611.246 647.698 597.03 648.551C594.755 648.551 586.368 649.262 584.378 649.546C582.387 649.688 581.108 648.551 580.681 646.134C580.539 644.713 579.686 640.448 578.122 633.624C577.412 630.639 576.843 627.511 577.98 624.81C579.118 622.252 579.686 621.114 581.961 619.408C586.51 616.139 592.765 612.727 600.157 612.016C602.147 611.874 610.251 611.305 612.241 611.021C616.506 610.737 619.917 608.888 622.618 605.477C625.177 602.633 622.618 598.369 619.917 597.374C605.133 591.687 597.314 588.56 596.177 588.133C592.481 586.569 588.216 584.295 583.382 581.167C581.676 580.03 580.681 578.466 580.397 576.476C579.26 567.947 580.113 559.843 582.956 552.167C586.936 541.789 594.187 534.113 604.564 529.279C612.809 525.441 620.77 523.877 628.447 524.446L662.139 524.588Z" fill="#030505"/>
<path d="M495.419 526.009C496.414 526.294 498.83 526.294 502.527 526.152C504.659 526.009 505.37 527.004 505.37 529.137V566.525L506.365 567.236C507.929 565.672 510.203 563.682 511.625 561.976C515.89 556.289 523.708 545.77 535.081 530.558C535.081 530.558 535.934 529.137 537.64 526.578L572.185 553.02C566.356 558.137 558.537 565.53 552.709 570.079C547.307 574.628 544.179 579.035 539.914 585.29C537.498 588.844 535.792 591.261 534.797 592.54C534.086 593.535 535.223 595.383 535.65 595.668C541.336 601.638 549.155 606.472 558.822 609.884C559.248 610.168 563.655 611.589 572.043 614.433C571.9 615.428 571.758 617.134 571.616 619.408C571.332 619.408 571.19 619.266 571.19 619.124C565.93 629.359 567.351 625.948 563.513 636.325C561.807 640.874 560.385 644.286 559.39 646.561C557.258 651.394 557.258 651.536 551.714 649.83C547.449 648.977 541.763 646.987 534.655 643.575C519.159 636.325 524.277 639.168 508.355 632.913C508.355 640.448 508.355 644.57 508.497 645.281C508.639 648.124 507.218 649.688 504.232 649.973C494.708 650.826 486.463 650.683 479.355 649.546C477.222 649.262 473.526 649.546 468.408 650.399C462.722 651.11 460.447 649.262 460.447 643.86C460.732 620.261 461.016 605.334 461.3 599.222C461.585 593.251 464.57 568.515 464.996 562.971C465.423 558.28 466.276 547.333 467.555 530.274C467.555 520.214 485.493 523.984 495.419 526.009Z" fill="#030505"/>
<path d="M405.444 525.583C413.405 524.872 417.67 524.588 418.238 524.588C429.895 523.593 437.998 528 443.969 534.823C447.523 538.946 449.798 544.064 450.935 550.177C454.062 567.662 453.778 582.873 450.224 595.81C447.097 606.33 444.111 617.134 441.268 627.938C437.856 640.164 429.185 646.987 415.253 648.125C406.439 648.693 399.757 650.968 390.659 649.688C380.424 647.982 372.463 644.713 364.218 640.874C359.384 638.884 357.394 634.051 355.972 628.222C352.134 614.006 351.281 599.933 353.271 585.717C355.262 570.648 361.801 555.294 372.747 539.373C375.306 535.676 381.135 532.549 384.973 529.848C390.091 526.01 396.914 524.588 405.444 525.583ZM397.199 589.839C397.483 593.251 397.909 598.227 399.047 600.928C399.473 602.349 402.032 604.339 404.022 604.339C405.87 604.339 408.145 602.207 408.856 600.928C409.993 598.653 410.562 595.952 410.562 593.109C410.419 589.271 409.424 576.192 409.282 572.638C409.14 570.363 407.15 568.373 405.017 570.079C400.184 572.211 399.615 574.628 398.762 579.604C398.336 582.02 397.341 587.565 397.199 589.839Z" fill="#030505"/>
<path d="M298.667 525.583C306.627 524.872 310.892 524.588 311.461 524.588C323.118 523.593 331.221 528 337.192 534.823C340.746 538.946 343.02 544.064 344.158 550.177C347.285 567.662 347.001 582.873 343.447 595.81C340.319 606.33 337.334 617.134 334.491 627.938C331.079 640.164 322.407 646.987 308.476 648.125C299.662 648.693 292.98 650.968 283.882 649.688C273.646 647.982 265.685 644.713 257.44 640.874C252.607 638.884 250.617 634.051 249.195 628.222C245.357 614.006 244.504 599.933 246.494 585.717C248.484 570.648 255.024 555.294 265.97 539.373C268.529 535.676 274.357 532.549 278.196 529.848C283.313 526.01 290.137 524.588 298.667 525.583ZM290.421 589.839C290.706 593.251 291.132 598.227 292.269 600.928C292.696 602.349 295.255 604.339 297.245 604.339C299.093 604.339 301.368 602.207 302.078 600.928C303.216 598.653 303.784 595.952 303.784 593.109C303.642 589.271 302.647 576.192 302.505 572.638C302.363 570.363 300.372 568.373 298.24 570.079C293.407 572.211 292.838 574.628 291.985 579.604C291.559 582.02 290.563 587.565 290.421 589.839Z" fill="#030505"/>
<path d="M147.824 589.981C147.824 582.731 147.113 552.451 147.113 545.485C147.113 544.49 147.255 532.122 147.113 530.985C146.686 526.436 149.53 525.298 153.226 524.161C160.476 522.313 164.599 522.313 174.265 522.739C179.241 523.024 183.079 523.024 185.923 523.024C199.57 523.024 205.398 525.298 215.634 528.852C224.021 531.98 228.57 540.083 229.281 553.162C230.276 566.525 226.58 575.196 218.619 580.598C217.055 581.594 213.217 583.868 211.796 584.863C211.796 584.863 210.943 585.29 209.237 586C214.639 587.849 222.6 589.839 227.433 591.687C230.134 592.824 232.267 594.672 233.83 597.231C242.076 611.305 243.071 625.663 236.816 640.448C235.11 644.286 231.271 645.565 226.865 646.56C216.913 649.972 203.55 652.105 190.756 651.82C184.927 651.82 178.815 651.536 172.275 651.11C166.589 650.967 160.76 651.252 155.216 651.536H149.388C146.544 638.173 146.544 625.805 147.397 609.172C147.824 600.359 147.966 593.961 147.824 589.981ZM173.697 621.114C174.123 627.085 174.265 626.942 180.094 627.795C180.378 627.795 181.942 627.795 184.785 628.08C192.746 627.653 198.859 628.08 199.996 620.687C200.138 619.692 200.281 618.271 200.565 616.28V615.854C200.991 607.751 192.462 603.344 183.79 605.334C182.226 605.618 180.236 606.187 177.535 607.04C177.109 607.324 176.682 607.324 176.398 607.324C175.829 607.751 174.834 608.462 174.834 609.457C174.123 615.428 173.697 619.408 173.697 621.114ZM174.834 560.127C174.55 564.392 175.545 566.098 179.383 566.382C181.8 566.382 185.923 566.098 191.609 565.387C194.168 564.677 195.589 558.99 194.594 556.716C194.026 555.01 192.32 553.73 189.619 552.593C184.217 550.034 178.815 549.039 175.545 551.74C174.976 552.166 174.692 552.593 174.55 553.162C174.55 553.588 174.692 555.863 174.834 560.127Z" fill="#030505"/>
<path d="M654.898 287.606C661.93 292.886 676.049 302.807 676.27 300.252C677.722 283.474 647.765 272.537 681.014 283.186C689.075 285.768 684.699 278.285 681.014 275.485C677.33 272.684 664.709 268.79 664.617 267.214C664.525 265.639 674.888 235.533 674.059 235.008C673.23 234.483 662.498 245.335 658.767 252.161C655.036 258.988 652.964 263.232 653.148 259.075C653.332 254.918 644.811 230.37 643.706 231.857C642.6 233.345 635.092 262.663 635.092 264.895C635.092 267.127 628.782 264.151 624.683 262.663C620.583 261.176 611.786 261.219 606.028 262.663C600.271 264.107 606.627 266.995 611.786 269.621C616.945 272.247 625.466 280.561 625.558 281.392C625.65 282.223 609.621 300.252 606.028 304.103C602.436 307.953 612.937 305.591 619.248 302.002C625.558 298.414 632.928 289.531 633.342 290.1C633.757 290.669 634.77 312.067 635.092 318.149C635.415 324.232 637.902 324.319 641.679 320.906C644.701 318.175 651.751 297.568 654.898 287.606Z" fill="#F4D23D"/>
<path d="M152.908 460.329C152.926 459.289 153.013 458.355 154.313 456.12C156.588 452.21 165.363 441.767 163.819 437.488C163.046 435.346 156.593 436.971 150.163 439.592C144.056 442.081 137.775 447.14 136.892 445.484C133.748 439.592 130.193 424.066 122.718 425.044C115.436 425.997 115.967 446.734 115.723 452.086C115.396 452.698 114.318 453.026 113.222 453.283C108.762 454.644 81.7657 464.455 90.8582 470.249C95.9791 473.512 109.418 470.106 111.818 475.457C111.981 475.821 112.178 476.344 112.237 479.057C112.288 481.404 112.314 485.605 112.585 490.178C112.857 494.751 113.294 499.557 113.66 502.078C114.064 504.858 114.892 507.01 116.28 507.578C126.831 511.894 129.772 481.637 141.314 482.792C147.275 483.389 151.989 493.197 158.089 490.947C170.201 486.48 152.782 467.71 152.908 460.329Z" fill="#F7A8C7"/>
<path d="M713.5 301.5C718.002 301.5 721.413 303.091 723.718 305.586C726.051 308.112 727.5 311.839 727.5 316.5C727.5 325.337 720.337 332.5 711.5 332.5C707.223 332.5 703.447 329.897 700.108 326.166C697.196 322.912 695.5 320.18 695.5 316.5C695.5 312.362 697.545 308.673 700.921 305.926C704.321 303.158 708.915 301.5 713.5 301.5Z" fill="white" stroke="#A0E4F2" stroke-width="7"/>
<path d="M671.782 338.5C674.369 338.5 676.214 339.392 677.427 340.686C678.664 342.005 679.5 344.022 679.5 346.685C679.5 351.504 675.52 355.5 670.5 355.5C668.275 355.5 666.165 354.166 664.116 351.91C662.31 349.921 661.5 348.505 661.5 346.685C661.5 344.552 662.562 342.57 664.491 341.022C666.445 339.456 669.116 338.5 671.782 338.5Z" fill="white" stroke="#A0E4F2" stroke-width="7"/>
</svg>
